<?xml version="1.0" encoding="utf-8"?>
<!-- Svg Vector Icons : http://www.onlinewebfonts.com/icon -->
<!DOCTYPE svg PUBLIC "-//W3C//DTD SVG 1.1//EN" "http://www.w3.org/Graphics/SVG/1.1/DTD/svg11.dtd">
<svg version="1.1" xmlns="http://www.w3.org/2000/svg" xmlns:xlink="http://www.w3.org/1999/xlink" x="0px" y="0px" viewBox="0 0 256 256" enable-background="new 0 0 256 256" xml:space="preserve">
<metadata> Svg Vector Icons : http://www.onlinewebfonts.com/icon </metadata>
<g> <path fill="#49b250" d="M51.5,51.7l24.8-6.5l18.3,18.3l-6.5,24.8l-24.8,6.5L45,76.5L51.5,51.7z"/> <path fill="#379340" d="M61.1,48.7l15.1-3.9l19,19.3l-6.5,24.2l-15.8,3.5L54.6,73.6L61.1,48.7z"/> <path fill="#a7a7a6" d="M140.5,105.5l-34.8,34.8l15.2,15.2l34.8-34.8L140.5,105.5z"/> <path fill="#c0bfbf" d="M243,200.2l-39.2,39.2L148,183.5l-15.2,15.2l-95.2-25.5L12.1,78l17.1-17.1l60.3,60.3l26.4-26.4l0.2,0.2 L177,34.2l25.4,94.9l-15.2,15.2L243,200.2z"/> <path fill="#999999" d="M90.2,120.3l86.6-86.1l2.8,7.9L90.2,132l-61-61l-8.1,8.1l23.6,87.3L132,190l17.7-17.7l61.3,59.9l-7.2,7.2 L148,183.5l-14,14.9l-95.8-26.1l-26-94.6l17.1-16.6L90.2,120.3z"/> <path fill="#999999" d="M169.6,39.3l-49.3,49.3L64.6,32.9l17.1-17.1L169.6,39.3z"/> <path fill="#262626" d="M72.8,43.9l-9.6-9.6l-0.5-0.7l-0.2-0.8l0.2-0.8l0.5-0.7l17.1-17.1l0.6-0.4l0.7-0.2l0.7,0.1l88.5,23.7 l4.8-4.8l0.7-0.5l0.9-0.1l0.8,0.2l0.7,0.5l0.4,0.8l25.4,94.9c0,0.5,0.2,1-0.5,2l-13.8,13.8l55.9,55.9l-3,3l-57.4-57.4l-0.5-0.7 l-0.2-0.8l0.2-0.8l0.5-0.7l14.4-14.4l-24.2-90.2l-58.3,58.3l-0.9,0.5L91,122.8l-0.7,0.5l-0.8,0.2l-0.8-0.2l-0.7-0.5L29.2,63.9 L14.4,78.7l24.9,92.8l92.8,24.9l14.4-14.4l0.7-0.5l0.8-0.2l0.8,0.2l0.7,0.5l57.4,57.4l-3,3L148,186.4l-13.8,13.8 c-0.4,0.3-0.8,0.7-2,0.5L37,175.2c-0.4-0.2-0.9-0.3-1.5-1.5L10,78.6c0-0.5-0.2-1,0.5-2l17.1-17.1l0.7-0.5l0.8-0.2L30,59l0.7,0.5 l13.2,13.2l5.7-21.5c0.2-0.7,0.5-1.2,1.5-1.5L72.8,43.9z M48,156l-1,0.3L29.3,92.8l1-0.3L48,156z M127.2,152.6l-3.6,2.1l-13.9-24 l3.6-2.1L127.2,152.6z M132.9,146.8l-3.6,2.1l-13.9-24l3.6-2.1L132.9,146.8L132.9,146.8z M138.7,141.1l-3.6,2.1l-13.9-24l3.6-2.1 L138.7,141.1z M144.4,135.3l-3.6,2.1l-13.9-24l3.6-2.1L144.4,135.3z M150.2,129.6l-3.6,2.1l-13.9-24l3.6-2.1L150.2,129.6z  M95.9,67.1l-5.7,21.8c-0.2,0.7-0.5,1.2-1.5,1.5L67.1,96l22.4,22.4l24.9-24.9l0.9-0.5l3.2-3.2L95.9,67.1z M53.2,53.4l-5.9,22.5 l16.6,16.6l22.5-5.9l5.9-22.5L75.7,47.5L53.2,53.4z M67.6,32.9l53.9,53.9l45.9-45.9l-85-22.8L67.6,32.9z M159.6,43.7l-0.3,1 L82.6,24.1l0.3-1L159.6,43.7z"/></g>
</svg>